<svg width="32" height="34" viewBox="0 0 32 34" fill="none" xmlns="http://www.w3.org/2000/svg">
<path d="M2.88299 27.5869L15.1844 31.9381V23.2357L2.88299 27.5869ZM16.8113 31.9381L29.1125 27.5869L16.8113 23.2357V31.9381ZM1.6269 26.5671L13.9283 22.2159L1.6269 17.8648V26.5671ZM18.0673 22.2159L30.3687 26.5671V17.8648L18.0673 22.2159ZM2.88308 16.845L15.1844 21.1961V12.4938L2.88308 16.845ZM16.8113 21.1961L29.1125 16.845L16.8113 12.4938V21.1961ZM1.6269 15.8252L13.9283 11.474L1.6269 7.12279V15.8252ZM18.0673 11.474L30.3687 15.8252V7.12279L18.0673 11.474ZM2.8829 6.10307L15.1844 10.4543V1.75181L2.8829 6.10307ZM16.8113 10.4543L29.1126 6.10307L16.8113 1.75181V10.4543ZM31.9956 28.0313L15.9978 33.69L0 28.0313V5.65876L15.9978 0L31.9956 5.65876V28.0313Z" fill="#470E84"/>
<path d="M1.61963 6.08862V16.3535L15.1165 21.134V10.4168H16.7362V32.8783H15.1165V22.5947L1.61963 17.8142V27.5054H0V6.08862H1.61963Z" fill="#E91E03"/>
<path d="M0 6.09786H1.61712V5.08716L0 5.65989V6.09786Z" fill="#E91E03"/>
<path d="M0 27.3395H1.61712V28.6029L0 28.0301V27.3395Z" fill="#E91E03"/>
<path d="M16.7355 32.873L15.1184 32.8646V33.3784L15.9943 33.69L16.7355 33.4289V32.873Z" fill="#E91E03"/>
</svg>
