<svg width="41" height="35" viewBox="0 0 41 35" fill="none" xmlns="http://www.w3.org/2000/svg">
<path d="M20.8884 28.21C19.7033 28.3399 16.6221 28.2879 13.778 27.0416C14.5116 26.2811 16.1255 24.5934 16.7124 23.9257C17.4461 23.0911 17.5589 19.3631 17.7282 19.1405C17.8975 18.918 19.8162 18.4728 21.0577 17.1931C22.2992 15.9134 22.7506 14.5223 22.5813 12.8531C22.412 11.1839 21.9606 10.7387 20.832 10.7944C19.7033 10.85 19.2519 14.1885 18.9133 14.6336C18.5747 15.0787 17.1075 16.581 16.7124 16.3028C16.3174 16.0246 14.4552 14.1328 13.7216 14.1885C12.9879 14.2441 12.5929 13.9659 12.5929 16.1916C12.5929 18.4172 14.3987 19.2518 14.4552 21.1993C14.5116 23.1467 12.5929 25.8175 8.07839 25.7618C3.56386 25.7062 0.177949 20.0864 0.00865368 17.5269C-0.160641 14.9675 2.20949 7.62283 2.26592 9.90411C2.31107 11.7291 4.50438 12.9273 5.59539 13.2982H9.03773V10.9057C7.5705 10.9057 4.61347 10.1156 4.52318 6.95514C4.43288 3.79472 7.30714 2.18855 8.75555 1.78051H12.5929V6.00924C13.176 6.78821 14.4552 7.7675 14.9066 5.45283C15.4709 2.55949 16.9382 0 20.4369 0C23.2359 0 24.7633 1.81761 25.1772 2.72641H29.2403C31.2718 2.72641 33.8112 5.06334 33.8677 8.73565C33.9241 12.408 29.1838 15.7464 25.1772 18.4728C21.9719 20.654 20.9824 22.7572 20.8884 23.5362V28.21Z" fill="#3953AB"/>
<path d="M32.7955 16.6923C30.8091 18.8735 27.0394 20.9396 25.4029 21.7C24.7069 22.3121 23.2811 24.0147 23.1457 25.9287C23.0102 27.8428 24.9327 29.5083 25.9108 30.1018H29.2967C29.8798 31.7711 31.6894 35.0873 34.2627 34.9982C36.836 34.9092 38.6832 31.2888 39.2851 29.4898V24.2039C38.5139 24.3708 36.7231 24.7158 35.7299 24.7603C34.4884 24.8159 32.7955 25.0941 32.9648 23.5918C33.1341 22.0895 34.432 21.7 36.125 21.7C37.8179 21.7 40.5831 20.8654 40.9781 17.1931C41.3731 13.5208 36.2942 7.73411 36.6328 9.68155C36.9714 11.629 35.2785 13.9659 32.7955 16.6923Z" fill="#3953AB"/>
</svg>
