<svg width="36" height="35" viewBox="0 0 36 35" fill="none" xmlns="http://www.w3.org/2000/svg">
<ellipse cx="11.3148" cy="24.9394" rx="5.74803" ry="5.74804" fill="#3953AB"/>
<path d="M1.53807 26.8557C2.27491 24.5467 3.55234 28.3787 6.1073 22.4832C8.66226 16.5876 20.6981 23.7115 14.7537 29.6069C8.80929 35.5023 0.801219 29.1648 1.53807 26.8557Z" fill="#3953AB"/>
<path d="M22.5005 21.3711L19.2583 24.8096L19.2544 24.8057C19.2558 24.7728 19.2583 24.7399 19.2583 24.707C19.2582 20.7358 15.625 17.0971 12.022 17.0967C11.9411 17.0967 11.8601 17.0998 11.7798 17.1035L14.9351 13.6582L22.5005 21.3711Z" fill="#3953AB"/>
<path d="M35.1272 4.96191L23.5823 19.8477L23.5794 19.8447C23.58 19.8279 23.5813 19.8107 23.5813 19.7939C23.581 15.8228 19.9479 12.1839 16.345 12.1836C16.2699 12.1836 16.195 12.1872 16.1204 12.1904L30.8528 0.786133L35.1272 4.96191Z" fill="#3953AB"/>
<path d="M15.2641 13.6572C18.8672 13.6574 22.5003 17.2962 22.5004 21.2676C22.5004 21.3178 22.4967 21.368 22.4955 21.418L14.935 13.6846L14.9448 13.667C15.0505 13.6605 15.1571 13.6572 15.2641 13.6572Z" fill="#3953AB"/>
<ellipse cx="32.8673" cy="2.99684" rx="2.99684" ry="2.99684" fill="#3953AB"/>
</svg>
