<svg width="35" height="35" viewBox="0 0 35 35" fill="none" xmlns="http://www.w3.org/2000/svg">
<path fill-rule="evenodd" clip-rule="evenodd" d="M17.9388 30.897C19.1747 30.9464 21.8936 29.8094 23.0306 26.695C23.7406 24.7504 24.5631 24.1738 24.7114 23.6795C24.8597 23.1851 24.8597 20.3673 24.8597 20.3673C24.8597 20.3673 25.813 19.7419 26.1945 19.1315C26.4417 18.736 26.6208 17.7353 26.1945 17.1541C25.6506 16.4125 23.1296 14.88 23.1296 14.88V13.2487C23.7227 12.9026 24.662 13.1004 25.1564 13.5947C26.0328 14.4712 27.0844 15.0283 27.0844 15.0283H29.4573C29.3584 16.1983 30.0109 19.0919 32.0278 20.7134C34.0448 22.3348 33.7087 17.8132 33.4615 15.4238L29.2596 7.26705L25.4531 3.70772L19.9658 1.38428L14.4291 1.58202L10.2271 4.1032C10.2271 4.1032 10.326 5.45449 10.1282 6.37721C9.9305 7.29994 9.13956 7.7614 8.89236 8.35462C8.64517 8.94784 9.04067 10.2331 9.9305 10.2331C11.1664 10.2331 11.7102 8.6692 12.0068 8.45349C12.3466 8.20631 13.6876 8.20631 14.0336 8.45349C14.3579 8.68512 14.1819 9.39275 15.4178 9.39275C16.2582 9.39275 16.2582 8.94784 16.4065 8.30518C17.1974 8.25575 17.8314 8.4961 18.5322 9.04671C19.2243 9.59049 19.3601 10.9887 18.9771 11.4196C18.5816 11.8645 17.6918 11.8151 16.9503 11.5185C15.9426 11.1154 14.7397 11.0735 13.9842 11.0735C13.0449 11.0735 10.9686 11.123 9.88106 12.1611C8.79354 13.1992 7.75523 14.2374 7.50809 14.7317C7.27731 15.1934 6.42053 17.8461 8.34846 19.7741C10.8028 22.2285 12.8469 20.1202 14.1818 22.1964C14.6371 22.9046 14.7256 26.2501 14.8244 27.7826C14.9233 29.3151 15.7143 30.106 16.1098 30.4026C16.4261 30.6399 17.2962 30.8713 17.9388 30.897ZM24.2665 6.72326C24.1182 5.98173 22.6372 5.43795 21.9431 5.43795C21.3004 5.43795 19.7086 6.2388 19.6691 6.87157C19.6196 7.66253 19.9657 7.86027 20.5589 7.81083C21.1521 7.7614 21.3993 7.41535 21.9925 7.41535C22.6427 7.41535 23.1062 7.66253 23.3273 7.66253C23.6732 7.66253 24.5137 7.95914 24.2665 6.72326Z" fill="#3953AB"/>
<path d="M32.2316 17.5C32.2316 9.36394 25.6361 2.76836 17.5 2.76836C9.36394 2.76836 2.76836 9.36394 2.76836 17.5C2.76836 25.6361 9.36394 32.2316 17.5 32.2316C25.6361 32.2316 32.2316 25.6361 32.2316 17.5ZM35 17.5C35 27.165 27.165 35 17.5 35C7.83502 35 0 27.165 0 17.5C0 7.83502 7.83502 0 17.5 0C27.165 0 35 7.83502 35 17.5Z" fill="#3953AB"/>
</svg>
