<svg width="34" height="35" viewBox="0 0 34 35" fill="none" xmlns="http://www.w3.org/2000/svg">
<path fill-rule="evenodd" clip-rule="evenodd" d="M29.012 13.8897L33.3806 14.6248C33.7384 14.6847 34.0006 15.0028 34 15.3757V19.5604C34 19.9294 33.7427 20.246 33.3886 20.3098L29.0141 21.1004C28.7606 22.0028 28.4125 22.8718 27.9741 23.6935L30.5598 27.389C30.7719 27.6918 30.7388 28.1081 30.4829 28.3721L27.6088 31.3327C27.3547 31.5936 26.9554 31.6308 26.6613 31.4171L23.0354 28.7989C22.2358 29.2569 21.3864 29.6223 20.5001 29.8907L19.7276 34.3722C19.6656 34.7353 19.3588 35 19.0003 35H14.9347C14.5732 35 14.2649 34.7314 14.2067 34.3654L13.485 29.906C12.6003 29.6428 11.7465 29.2797 10.9386 28.8225L7.33873 31.4177C7.04527 31.6302 6.64536 31.5936 6.39181 31.3327L3.51783 28.3721C3.26281 28.1081 3.22953 27.6933 3.43948 27.3912L5.98304 23.7293C5.53435 22.8937 5.17805 22.0119 4.92008 21.0967L0.609833 20.3098C0.257232 20.2453 0 19.9294 0 19.5604V15.3757C0 15.0043 0.261673 14.6862 0.617971 14.6254L4.92822 13.8867C5.18768 12.969 5.54395 12.0872 5.99118 11.254L3.47865 7.55392C3.27242 7.25185 3.3079 6.84097 3.56144 6.58L6.43469 3.6225C6.6912 3.36 7.09257 3.325 7.38752 3.54185L10.9578 6.16685C11.7599 5.71489 12.6114 5.355 13.4984 5.0925L14.2052 0.638378C14.2634 0.270113 14.5724 0 14.9347 0H19.0003C19.3596 0 19.6662 0.266306 19.7283 0.63L20.4905 5.10847C21.3724 5.3725 22.2224 5.73619 23.0273 6.19423L26.6073 3.54565C26.9014 3.32728 27.3052 3.36153 27.5617 3.62478L30.4364 6.58227C30.6899 6.84403 30.7254 7.25565 30.519 7.55772L27.9688 11.2989C28.4066 12.1199 28.7561 12.9873 29.012 13.8897ZM11.8256 17.5C11.8256 20.4415 14.1423 22.8261 17 22.8261C19.8577 22.8261 22.1744 20.4415 22.1744 17.5C22.1744 14.5585 19.8577 12.1739 17 12.1739C14.1423 12.1739 11.8256 14.5585 11.8256 17.5Z" fill="#3953AB"/>
</svg>
