<svg width="43" height="35" viewBox="0 0 43 35" fill="none" xmlns="http://www.w3.org/2000/svg">
<path d="M42.8993 33.213C43.4242 31.4837 42.0236 26.0673 35.6672 22.2605C29.6033 18.6289 24.8186 17.8795 21.4392 17.8795C16.3609 17.8795 12.761 14.2355 11.351 10.5009C11.351 10.5009 16.7705 14.8243 20.8567 14.8243C25.23 14.8243 31.5858 15.4584 37.7077 20.4735C38.9547 19.2167 38.6079 17.4183 38.4074 15.0549C38.2802 13.5561 38.3442 11.7933 36.2499 8.65629C34.3256 5.77404 29.3123 3.54409 23.7131 3.29531C18.5235 3.06473 16.7651 4.07488 11.876 4.10234C7.06445 4.10231 5.27027 2.29788 4.06178 1.08248C3.13202 0.147398 2.54892 -0.43903 1.20511 0.413164C-1.88536 2.37302 0.155571 29.1203 17.0074 30.822C18.9345 31.0166 25.9872 30.7344 28.7861 29.985C30.9184 29.4141 33.2442 27.659 34.3931 26.792C34.7523 26.521 34.9964 26.3367 35.0837 26.3026C35.0837 26.3026 36.4269 33.213 39.0503 35C40.6836 35 41.9081 35 42.8993 33.213Z" fill="#3953AB"/>
</svg>
