<svg width="28" height="35" viewBox="0 0 28 35" fill="none" xmlns="http://www.w3.org/2000/svg">
<path d="M27.026 12.7885C27.026 19.8514 20.976 25.577 13.513 25.577C6.04998 25.577 0 19.8514 0 12.7885C0 5.72561 6.04998 0 13.513 0C20.976 0 27.026 5.72561 27.026 12.7885Z" fill="#3953AB"/>
<path d="M6.40088 16.154C6.40088 15.7823 6.7193 15.481 7.11209 15.481H20.6251C21.0179 15.481 21.3363 15.7823 21.3363 16.154V26.2502C21.3363 26.622 21.0179 26.9233 20.6251 26.9233H7.11209C6.7193 26.9233 6.40088 26.622 6.40088 26.2502V16.154Z" fill="#3953AB"/>
<path d="M6.40088 28.9421C6.40088 28.5704 6.7193 28.269 7.11209 28.269H20.6251C21.0179 28.269 21.3363 28.5704 21.3363 28.9421V30.2883C21.3363 30.66 21.0179 30.9614 20.6251 30.9614H7.11209C6.7193 30.9614 6.40088 30.66 6.40088 30.2883V28.9421Z" fill="#3953AB"/>
<path d="M9.63592 32.5578C9.44905 32.1157 9.79311 31.6348 10.2963 31.6348H17.5356C18.012 31.6348 18.3537 32.0694 18.2168 32.5013L17.5768 34.5205C17.4865 34.8052 17.2096 35.0002 16.8955 35.0002H11.1497C10.8589 35.0002 10.5974 34.8326 10.4894 34.5771L9.63592 32.5578Z" fill="#3953AB"/>
</svg>
