<svg width="35" height="35" viewBox="0 0 35 35" fill="none" xmlns="http://www.w3.org/2000/svg">
<path d="M21.143 12.0817C21.143 7.07731 17.0861 3.02043 12.0817 3.02043C7.07731 3.02043 3.02043 7.07731 3.02043 12.0817C3.02043 17.0861 7.07731 21.143 12.0817 21.143V24.1635C5.40917 24.1635 0 18.7543 0 12.0817C0 5.40917 5.40917 0 12.0817 0C18.7543 0 24.1635 5.40917 24.1635 12.0817C24.1635 18.7543 18.7543 24.1635 12.0817 24.1635V21.143C17.0861 21.143 21.143 17.0861 21.143 12.0817Z" fill="#3953AB"/>
<path d="M22.9936 21.7425L20.8579 23.8783L18.1227 21.1431L20.2584 19.0073L22.9936 21.7425Z" fill="#3953AB"/>
<path d="M29.9266 30.1319C30.256 29.8025 30.256 29.2682 29.9266 28.9388L24.0962 23.1084L22.9032 24.3015L28.7336 30.1319L26.5978 32.2676L19.9131 25.5829L19.8489 25.5154C19.2268 24.827 19.227 23.7761 19.8489 23.0876L19.9131 23.02L22.8147 20.1184C23.5004 19.4327 24.5987 19.4113 25.3101 20.0541L25.3777 20.1184L32.0624 26.8031C33.5713 28.312 33.5713 30.7587 32.0624 32.2676L31.9185 32.4049C30.4505 33.7311 28.21 33.7308 26.7421 32.4045L26.5978 32.2676L28.7336 30.1319C29.0629 30.4612 29.5972 30.4612 29.9266 30.1319Z" fill="#3953AB"/>
</svg>
