<svg width="41" height="35" viewBox="0 0 41 35" fill="none" xmlns="http://www.w3.org/2000/svg">
<path d="M37.7732 13.8455C37.7732 12.9323 37.0508 12.1919 36.1598 12.1919H13.4602C12.5691 12.1919 11.8468 12.9323 11.8468 13.8455V30.0392C11.8468 30.9524 12.5691 31.6928 13.4602 31.6928H36.1598C37.0508 31.6928 37.7732 30.9524 37.7732 30.0392V13.8455ZM41.0001 30.0392C41.0001 32.7789 38.833 34.9999 36.1598 34.9999H13.4602C10.787 34.9999 8.61987 32.7789 8.61987 30.0392V13.8455C8.61987 11.1058 10.787 8.88477 13.4602 8.88477H36.1598C38.833 8.88477 41.0001 11.1058 41.0001 13.8455V30.0392Z" fill="#3953AB"/>
<path d="M23.8084 18.2361C23.8084 20.283 22.1893 21.9424 20.192 21.9424C18.1948 21.9424 16.5757 20.283 16.5757 18.2361C16.5757 16.1892 18.1948 14.5298 20.192 14.5298C22.1893 14.5298 23.8084 16.1892 23.8084 18.2361Z" fill="#3953AB"/>
<path d="M16.6147 23.9442C16.819 23.7745 17.1112 23.7745 17.3155 23.9442L22.5395 28.2849C22.9466 28.6232 22.7132 29.298 22.1891 29.298H11.7411C11.217 29.298 10.9836 28.6232 11.3907 28.2849L16.6147 23.9442Z" fill="#3953AB"/>
<path d="M29.4341 19.578C29.6488 19.3692 29.9854 19.3692 30.2001 19.578L40.3879 29.4884V30.923H19.1658C18.6631 30.9229 18.4183 30.294 18.7829 29.9393L29.4341 19.578Z" fill="#3953AB"/>
<path d="M24.2541 0.111633C27.9433 -0.570236 31.4734 1.94206 32.1387 5.72298L32.9862 10.5386H29.594L28.8535 6.33016C28.5153 4.40873 26.7214 3.13197 24.8466 3.47849L6.17653 6.92942C4.30172 7.27596 3.05597 9.11454 3.39407 11.036L5.63984 23.798C5.97797 25.7194 7.77193 26.9962 9.64672 26.6497L10.2332 26.5412V30.0175C6.5462 30.6956 3.01968 28.184 2.3547 24.4052L0.108931 11.6433C-0.556414 7.86232 1.89492 4.24446 5.58409 3.56257L24.2541 0.111633Z" fill="#3953AB"/>
<path d="M11.1233 28.4429H38.8301V32.5483H11.1233V28.4429Z" fill="#3953AB"/>
</svg>
