<svg width="43" height="35" viewBox="0 0 43 35" fill="none" xmlns="http://www.w3.org/2000/svg">
<path d="M0 4.74912C0 2.12625 2.12144 0 4.73837 0H37.6964C40.3133 0 42.4348 2.12625 42.4348 4.74912V24.6954C42.4348 27.3183 40.3133 29.4445 37.6964 29.4445H4.73837C2.12144 29.4445 0 27.3183 0 24.6954V4.74912Z" fill="#3953AB"/>
<path d="M15.5555 29.4443H27.5925V32.2221H15.5555V29.4443Z" fill="#3953AB"/>
<path d="M14.4445 32.5925C14.4445 32.388 14.6247 32.2222 14.847 32.2222H27.9308C28.1532 32.2222 28.3334 32.388 28.3334 32.5925V34.6296C28.3334 34.8341 28.1532 35 27.9308 35H14.847C14.6247 35 14.4445 34.8341 14.4445 34.6296V32.5925Z" fill="#3953AB"/>
<path d="M39.3115 5.46242C39.3115 3.89748 38.0542 2.62885 36.5033 2.62885H5.98412C4.4332 2.62885 3.17593 3.89748 3.17593 5.46242V23.4262C3.17593 24.9912 4.4332 26.2598 5.98412 26.2598H36.5033C38.0542 26.2598 39.3115 24.9912 39.3115 23.4262V5.46242ZM40.2652 23.4262C40.2652 25.5226 38.581 27.2221 36.5033 27.2221H5.98412C3.90647 27.2221 2.22221 25.5226 2.22221 23.4262V5.46242C2.22221 3.366 3.90647 1.6665 5.98412 1.6665H36.5033C38.581 1.6665 40.2652 3.366 40.2652 5.46242V23.4262Z" fill="#6075BB"/>
</svg>
