<svg width="40" height="40" viewBox="0 0 40 40" fill="none" xmlns="http://www.w3.org/2000/svg">
<g clip-path="url(#clip0_39_131)">
<path d="M19.164 40H20.832C29.9 40 34.416 40 37.216 37.2C40 34.4 40 29.868 40 20.832V19.132C40 10.132 40 5.6 37.216 2.8C34.416 0 29.884 0 20.832 0H19.164C10.096 0 5.58 0 2.78 2.8C0 5.6 0 10.136 0 19.168V20.868C0 29.868 0 34.4 2.8 37.2C5.6 40 10.132 40 19.164 40Z" fill="#0077FF"/>
<path d="M21.284 28.816C12.168 28.816 6.96798 22.568 6.75198 12.168H11.32C11.472 19.8 14.836 23.036 17.504 23.7V12.168H21.804V18.752C24.436 18.468 27.204 15.468 28.136 12.168H32.436C31.724 15.628 29.604 18.636 26.584 20.468C29.956 22.144 32.448 25.184 33.432 28.816H28.7C27.808 25.624 25.088 23.28 21.8 22.864V28.816H21.284Z" fill="white"/>
</g>
<defs>
<clipPath id="clip0_39_131">
<rect width="40" height="40" fill="white"/>
</clipPath>
</defs>
</svg>
