<svg width="40" height="40" viewBox="0 0 40 40" fill="none" xmlns="http://www.w3.org/2000/svg">
<g clip-path="url(#clip0_39_134)">
<path d="M20 40C31.0457 40 40 31.0457 40 20C40 8.95431 31.0457 0 20 0C8.95431 0 0 8.95431 0 20C0 31.0457 8.95431 40 20 40Z" fill="url(#paint0_linear_39_134)"/>
<path fill-rule="evenodd" clip-rule="evenodd" d="M9.05198 19.7878C14.884 17.2478 18.772 15.5718 20.716 14.7638C26.272 12.4518 27.424 12.0518 28.176 12.0398C28.34 12.0358 28.712 12.0798 28.952 12.2718C29.156 12.4358 29.212 12.6558 29.236 12.8118C29.26 12.9678 29.296 13.3238 29.268 13.5998C28.968 16.7638 27.664 24.4358 27.004 27.9798C26.724 29.4798 26.172 29.9798 25.636 30.0318C24.476 30.1398 23.592 29.2638 22.468 28.5278C20.708 27.3758 19.712 26.6558 18.004 25.5278C16.028 24.2278 17.308 23.5118 18.436 22.3438C18.732 22.0398 23.848 17.3838 23.948 16.9598C23.96 16.9078 23.972 16.7118 23.856 16.6078C23.74 16.5038 23.568 16.5398 23.44 16.5678C23.264 16.6078 20.452 18.4678 15.004 22.1438C14.204 22.6918 13.484 22.9598 12.836 22.9438C12.12 22.9278 10.748 22.5398 9.72798 22.2078C8.47598 21.7998 7.47998 21.5838 7.56798 20.8958C7.61198 20.5318 8.10798 20.1638 9.05198 19.7878Z" fill="white"/>
</g>
<defs>
<linearGradient id="paint0_linear_39_134" x1="19.9982" y1="0" x2="19.9982" y2="39.704" gradientUnits="userSpaceOnUse">
<stop stop-color="#2AABEE"/>
<stop offset="1" stop-color="#229ED9"/>
</linearGradient>
<clipPath id="clip0_39_134">
<rect width="40" height="40" fill="white"/>
</clipPath>
</defs>
</svg>
