<svg width="18" height="30" viewBox="0 0 18 30" fill="none" xmlns="http://www.w3.org/2000/svg">
<path d="M13.7476 1.25C14.4378 0.55977 15.5569 0.55977 16.2471 1.25C16.9373 1.94024 16.9373 3.05932 16.2471 3.74956L3.74933 16.2473C3.0591 16.9376 1.94001 16.9376 1.24978 16.2473C0.559545 15.5571 0.559545 14.438 1.24978 13.7478L13.7476 1.25Z" fill="black"/>
<path d="M13.7599 28.75C14.4501 29.4402 15.5692 29.4402 16.2594 28.75C16.9497 28.0598 16.9497 26.9407 16.2594 26.2504L3.76166 13.7527C3.07143 13.0624 1.95234 13.0624 1.26211 13.7527C0.571874 14.4429 0.571874 15.562 1.26211 16.2522L13.7599 28.75Z" fill="black"/>
</svg>
